<svg width="148" height="94" viewBox="0 0 148 94" fill="none" xmlns="http://www.w3.org/2000/svg">
<path d="M2.752 0.863999L1.008 1.792C0.896 1.856 0.864 1.92 0.864 2.032V2.528C0.864 2.672 0.96 2.752 1.104 2.688L2.784 1.984C2.848 1.952 2.88 2 2.88 2.048V11.792C2.88 11.92 2.96 12 3.088 12H3.808C3.936 12 4.016 11.92 4.016 11.792V1.008C4.016 0.879999 3.936 0.799999 3.808 0.799999H3.024C2.928 0.799999 2.832 0.815999 2.752 0.863999ZM12.78 7.104C12.476 5.728 11.324 4.992 9.852 4.992C9.052 4.992 8.3 5.264 7.772 5.744C7.724 5.792 7.676 5.776 7.676 5.696L7.692 1.872C7.692 1.808 7.724 1.792 7.772 1.792H12.268C12.396 1.792 12.476 1.712 12.476 1.584V1.008C12.476 0.879999 12.396 0.799999 12.268 0.799999H6.764C6.636 0.799999 6.556 0.879999 6.556 1.008V7.056C6.556 7.184 6.636 7.264 6.764 7.264H7.548C7.66 7.264 7.74 7.216 7.788 7.088C8.06 6.384 8.828 6 9.724 6C10.764 6 11.532 6.496 11.692 7.504C11.756 7.92 11.772 8.288 11.772 8.56C11.772 8.768 11.756 9.2 11.676 9.504C11.468 10.496 10.748 11.12 9.724 11.12C8.7 11.12 7.996 10.512 7.788 9.616C7.756 9.52 7.724 9.424 7.724 9.344C7.708 9.2 7.628 9.136 7.5 9.136H6.764C6.636 9.136 6.54 9.216 6.556 9.36C6.588 9.552 6.636 9.776 6.7 10C7.084 11.264 8.188 12.112 9.724 12.112C11.26 12.112 12.412 11.248 12.78 9.888C12.908 9.392 12.924 8.944 12.924 8.544C12.924 8.208 12.908 7.728 12.78 7.104ZM14.8708 12H21.1588C21.2868 12 21.3668 11.92 21.3668 11.792V11.216C21.3668 11.088 21.2868 11.008 21.1588 11.008H16.2628C16.1988 11.008 16.1668 10.96 16.2148 10.912C17.3668 9.504 18.5028 8.144 19.5268 6.8C20.5028 5.552 21.0308 4.464 21.0308 3.52C21.0308 1.872 19.7668 0.672 17.7988 0.672C15.9908 0.672 14.6788 1.76 14.6308 3.408V4C14.6308 4.128 14.7108 4.208 14.8388 4.208H15.5748C15.7028 4.208 15.7828 4.128 15.7828 4V3.552C15.7668 2.416 16.5828 1.664 17.7988 1.664C19.0468 1.664 19.8788 2.416 19.8788 3.536C19.8788 4.288 19.3188 5.296 18.3748 6.496C17.2228 7.936 16.0228 9.44 14.7588 10.944C14.6948 11.024 14.6628 11.104 14.6628 11.2V11.792C14.6628 11.92 14.7428 12 14.8708 12ZM29.3209 7.296C29.0809 6.736 28.7129 6.336 28.2329 6.064C28.1689 6.032 28.1689 6 28.2329 5.952C28.6009 5.728 28.9209 5.408 29.1449 5.072C29.4489 4.656 29.6089 4.144 29.6089 3.552C29.6089 3.008 29.4649 2.496 29.2569 2.128C28.7449 1.152 27.7689 0.639999 26.4249 0.639999C25.2089 0.639999 24.2169 1.136 23.6889 1.984C23.4009 2.416 23.2409 2.944 23.2409 3.552C23.2409 4.144 23.4169 4.688 23.7209 5.12C23.9449 5.44 24.2649 5.728 24.6169 5.952C24.6809 5.984 24.6649 6.016 24.6169 6.048C24.1529 6.32 23.8009 6.72 23.5449 7.248C23.3529 7.68 23.2249 8.224 23.2249 8.848C23.2249 9.536 23.3689 10.144 23.6569 10.656C24.1689 11.6 25.1609 12.128 26.4249 12.128C27.7049 12.128 28.6649 11.6 29.1769 10.736C29.4489 10.256 29.6249 9.664 29.6249 8.864C29.6249 8.256 29.5289 7.728 29.3209 7.296ZM24.3609 3.648C24.3609 3.264 24.4569 2.912 24.6169 2.608C24.9529 2 25.5769 1.616 26.4089 1.616C27.2889 1.616 27.9129 2.016 28.2489 2.608C28.4089 2.896 28.4889 3.248 28.4889 3.632C28.4889 4.048 28.3929 4.432 28.1849 4.752C27.8169 5.296 27.2249 5.648 26.4409 5.648H26.3449C25.6089 5.632 25.0489 5.312 24.7129 4.816C24.4889 4.496 24.3609 4.096 24.3609 3.648ZM28.1049 10.336C27.7529 10.864 27.1929 11.152 26.4249 11.152C25.6409 11.152 25.0649 10.848 24.7129 10.272C24.5049 9.888 24.3769 9.392 24.3769 8.8C24.3769 8.384 24.4409 7.952 24.6009 7.616C24.9049 6.912 25.4969 6.464 26.4249 6.464C27.3529 6.464 28.0089 6.912 28.2969 7.664C28.4089 7.984 28.4889 8.368 28.4889 8.768C28.4889 9.44 28.3449 9.936 28.1049 10.336ZM45.752 1.584V1.008C45.752 0.879999 45.672 0.799999 45.544 0.799999H38.712C38.584 0.799999 38.504 0.879999 38.504 1.008V11.792C38.504 11.92 38.584 12 38.712 12H45.544C45.672 12 45.752 11.92 45.752 11.792V11.216C45.752 11.088 45.672 11.008 45.544 11.008H39.72C39.672 11.008 39.64 10.976 39.64 10.928V6.944C39.64 6.896 39.672 6.864 39.72 6.864H43.784C43.912 6.864 43.992 6.784 43.992 6.656V6.08C43.992 5.952 43.912 5.872 43.784 5.872H39.72C39.672 5.872 39.64 5.84 39.64 5.792V1.872C39.64 1.824 39.672 1.792 39.72 1.792H45.544C45.672 1.792 45.752 1.712 45.752 1.584ZM52.9595 4.112V4.656C52.9595 4.72 52.9115 4.752 52.8635 4.688C52.3995 4.128 51.6955 3.776 50.7195 3.776C49.2795 3.776 48.2395 4.656 47.8715 5.904C47.6955 6.448 47.6635 7.12 47.6635 7.952C47.6635 8.736 47.7115 9.408 47.8555 9.904C48.2395 11.312 49.4555 12.048 50.7835 12.048C51.7755 12.048 52.4315 11.664 52.8635 11.104C52.9115 11.04 52.9595 11.072 52.9595 11.136V11.696C52.9595 13.488 51.9995 14.208 49.7435 14.112C49.6155 14.096 49.5355 14.16 49.5355 14.304L49.5035 14.944C49.5035 15.088 49.5675 15.152 49.7115 15.168C52.2235 15.312 54.0955 14.432 54.0955 11.728V4.112C54.0955 3.984 54.0155 3.904 53.8875 3.904H53.1675C53.0395 3.904 52.9595 3.984 52.9595 4.112ZM52.8795 9.552C52.7195 10.384 52.0635 11.088 50.9595 11.088C49.9035 11.088 49.1675 10.4 48.9595 9.536C48.8795 9.312 48.7995 8.8 48.7995 7.92C48.7995 7.056 48.8635 6.624 48.9595 6.32C49.2155 5.456 49.9035 4.768 50.9595 4.768C52.0155 4.768 52.7035 5.456 52.8635 6.32C52.9435 6.64 52.9595 6.832 52.9595 7.936C52.9595 9.04 52.9435 9.248 52.8795 9.552ZM56.738 12H57.458C57.586 12 57.666 11.92 57.666 11.792V1.008C57.666 0.879999 57.586 0.799999 57.458 0.799999H56.738C56.61 0.799999 56.53 0.879999 56.53 1.008V11.792C56.53 11.92 56.61 12 56.738 12ZM60.9368 2.448C61.4488 2.448 61.8008 2.112 61.8008 1.616C61.8008 1.136 61.4488 0.799999 60.9368 0.799999C60.4248 0.799999 60.0728 1.136 60.0728 1.616C60.0728 2.112 60.4248 2.448 60.9368 2.448ZM60.5848 12H61.3048C61.4328 12 61.5128 11.92 61.5128 11.792V4.112C61.5128 3.984 61.4328 3.904 61.3048 3.904H60.5848C60.4568 3.904 60.3768 3.984 60.3768 4.112V11.792C60.3768 11.92 60.4568 12 60.5848 12ZM67.5306 3.792C66.6026 3.792 65.8506 4.112 65.3866 4.752C65.3546 4.816 65.3066 4.768 65.3066 4.704V4.112C65.3066 3.984 65.2266 3.904 65.0986 3.904H64.3786C64.2506 3.904 64.1706 3.984 64.1706 4.112V11.792C64.1706 11.92 64.2506 12 64.3786 12H65.0986C65.2266 12 65.3066 11.92 65.3066 11.792V6.464C65.4186 5.456 66.1866 4.784 67.2746 4.784C68.4106 4.784 69.1786 5.6 69.1786 6.784V11.792C69.1786 11.92 69.2586 12 69.3866 12H70.1066C70.2346 12 70.3146 11.92 70.3146 11.792V6.56C70.3146 4.88 69.2106 3.792 67.5306 3.792ZM76.4276 4.64V4.112C76.4276 3.984 76.3476 3.904 76.2196 3.904H74.4756C74.4276 3.904 74.3956 3.872 74.3956 3.824V2.032C74.3956 1.904 74.3156 1.824 74.1876 1.824H73.4996C73.3716 1.824 73.2916 1.904 73.2916 2.032V3.824C73.2916 3.872 73.2596 3.904 73.2116 3.904H72.2996C72.1716 3.904 72.0916 3.984 72.0916 4.112V4.64C72.0916 4.768 72.1716 4.848 72.2996 4.848H73.2116C73.2596 4.848 73.2916 4.88 73.2916 4.928V9.952C73.2916 11.616 74.2356 11.984 75.6276 11.984H76.1716C76.3156 11.968 76.3796 11.888 76.3796 11.76V11.2C76.3796 11.072 76.2996 10.992 76.1716 10.992H75.8196C74.8596 10.992 74.3956 10.64 74.3956 9.6V4.928C74.3956 4.88 74.4276 4.848 74.4756 4.848H76.2196C76.3476 4.848 76.4276 4.768 76.4276 4.64ZM81.4934 12.128C83.0134 12.128 84.1814 11.28 84.5974 9.904C84.7574 9.376 84.8214 8.704 84.8214 7.936C84.8214 7.184 84.7574 6.512 84.5974 5.968C84.1974 4.624 83.0294 3.776 81.4934 3.776C79.9094 3.776 78.7574 4.624 78.3414 5.984C78.1974 6.496 78.1334 7.152 78.1334 7.936C78.1334 8.704 78.1974 9.376 78.3574 9.904C78.7734 11.28 79.9254 12.128 81.4934 12.128ZM81.4934 11.136C80.4214 11.136 79.6534 10.528 79.4134 9.568C79.3174 9.216 79.2854 8.64 79.2854 7.952C79.2854 7.28 79.3174 6.688 79.4134 6.336C79.6694 5.392 80.4214 4.768 81.4614 4.768C82.5334 4.768 83.3014 5.392 83.5414 6.336C83.6374 6.688 83.6694 7.248 83.6694 7.952C83.6694 8.592 83.6374 9.184 83.5414 9.568C83.2854 10.528 82.5174 11.136 81.4934 11.136ZM90.4838 3.792C89.5558 3.792 88.8038 4.112 88.3398 4.752C88.3078 4.816 88.2598 4.768 88.2598 4.704V4.112C88.2598 3.984 88.1798 3.904 88.0518 3.904H87.3318C87.2038 3.904 87.1238 3.984 87.1238 4.112V11.792C87.1238 11.92 87.2038 12 87.3318 12H88.0518C88.1798 12 88.2598 11.92 88.2598 11.792V6.464C88.3718 5.456 89.1398 4.784 90.2278 4.784C91.3638 4.784 92.1318 5.6 92.1318 6.784V11.792C92.1318 11.92 92.2118 12 92.3398 12H93.0598C93.1878 12 93.2678 11.92 93.2678 11.792V6.56C93.2678 4.88 92.1638 3.792 90.4838 3.792ZM105.848 12H106.616C106.76 12 106.84 11.904 106.792 11.76L103.256 0.976C103.224 0.848 103.144 0.799999 103.032 0.799999H102.008C101.896 0.799999 101.816 0.848 101.784 0.976L98.2639 11.76C98.2159 11.904 98.2959 12 98.4399 12H99.2079C99.3199 12 99.3999 11.952 99.4319 11.824L100.056 9.872C100.072 9.84 100.088 9.808 100.136 9.808H104.904C104.952 9.808 104.968 9.84 104.984 9.872L105.624 11.824C105.656 11.952 105.736 12 105.848 12ZM100.408 8.784L102.472 2.24C102.488 2.16 102.552 2.16 102.568 2.24L104.648 8.784C104.664 8.848 104.632 8.88 104.584 8.88H100.472C100.424 8.88 100.392 8.848 100.408 8.784ZM110.314 12H111.178C111.29 12 111.386 11.936 111.418 11.824L113.994 4.16C114.042 4.016 113.978 3.92 113.834 3.92L113.018 3.904C112.906 3.904 112.826 3.952 112.794 4.08L110.794 10.304C110.778 10.384 110.714 10.384 110.698 10.304L108.698 4.08C108.666 3.952 108.586 3.904 108.474 3.904H107.658C107.514 3.904 107.434 4 107.482 4.144L110.074 11.824C110.106 11.936 110.202 12 110.314 12ZM118.698 11.152C117.53 11.152 116.746 10.512 116.522 9.584C116.458 9.344 116.426 8.944 116.426 8.416C116.426 8.368 116.458 8.336 116.506 8.336H121.626C121.754 8.336 121.834 8.256 121.834 8.128C121.834 7.376 121.818 6.96 121.738 6.528C121.45 4.848 120.442 3.776 118.538 3.776C116.954 3.776 115.802 4.688 115.45 6.064C115.322 6.56 115.306 7.104 115.306 7.92C115.306 8.816 115.386 9.536 115.61 10.128C116.042 11.36 117.082 12.128 118.602 12.128C120.042 12.128 121.082 11.424 121.578 10.384C121.642 10.272 121.594 10.176 121.482 10.112L121.018 9.856C120.906 9.792 120.794 9.84 120.746 9.952C120.378 10.672 119.69 11.136 118.698 11.152ZM118.538 4.768C119.642 4.768 120.378 5.408 120.602 6.336C120.65 6.56 120.682 6.928 120.698 7.36C120.698 7.408 120.666 7.44 120.618 7.44H116.506C116.458 7.44 116.426 7.408 116.426 7.36C116.442 6.896 116.474 6.528 116.554 6.272C116.762 5.392 117.45 4.768 118.538 4.768ZM127.453 3.792C126.525 3.792 125.773 4.112 125.309 4.752C125.277 4.816 125.229 4.768 125.229 4.704V4.112C125.229 3.984 125.149 3.904 125.021 3.904H124.301C124.173 3.904 124.093 3.984 124.093 4.112V11.792C124.093 11.92 124.173 12 124.301 12H125.021C125.149 12 125.229 11.92 125.229 11.792V6.464C125.341 5.456 126.109 4.784 127.197 4.784C128.333 4.784 129.101 5.6 129.101 6.784V11.792C129.101 11.92 129.181 12 129.309 12H130.029C130.157 12 130.237 11.92 130.237 11.792V6.56C130.237 4.88 129.133 3.792 127.453 3.792ZM137.614 4.112V9.136C137.614 10.32 136.846 11.12 135.63 11.12C134.446 11.12 133.726 10.336 133.726 9.136V4.112C133.726 3.984 133.646 3.904 133.518 3.904H132.798C132.67 3.904 132.59 3.984 132.59 4.112V9.472C132.59 11.184 133.886 12.112 135.406 12.112C136.382 12.112 137.086 11.76 137.518 11.152C137.566 11.088 137.614 11.12 137.614 11.184V11.792C137.614 11.92 137.694 12 137.822 12H138.542C138.67 12 138.75 11.92 138.75 11.792V4.112C138.75 3.984 138.67 3.904 138.542 3.904H137.822C137.694 3.904 137.614 3.984 137.614 4.112ZM144.448 11.152C143.28 11.152 142.496 10.512 142.272 9.584C142.208 9.344 142.176 8.944 142.176 8.416C142.176 8.368 142.208 8.336 142.256 8.336H147.376C147.504 8.336 147.584 8.256 147.584 8.128C147.584 7.376 147.568 6.96 147.488 6.528C147.2 4.848 146.192 3.776 144.288 3.776C142.704 3.776 141.552 4.688 141.2 6.064C141.072 6.56 141.056 7.104 141.056 7.92C141.056 8.816 141.136 9.536 141.36 10.128C141.792 11.36 142.832 12.128 144.352 12.128C145.792 12.128 146.832 11.424 147.328 10.384C147.392 10.272 147.344 10.176 147.232 10.112L146.768 9.856C146.656 9.792 146.544 9.84 146.496 9.952C146.128 10.672 145.44 11.136 144.448 11.152ZM144.288 4.768C145.392 4.768 146.128 5.408 146.352 6.336C146.4 6.56 146.432 6.928 146.448 7.36C146.448 7.408 146.416 7.44 146.368 7.44H142.256C142.208 7.44 142.176 7.408 142.176 7.36C142.192 6.896 142.224 6.528 142.304 6.272C142.512 5.392 143.2 4.768 144.288 4.768ZM8.208 27.8H0.896C0.768 27.8 0.688 27.88 0.688 28.008V28.6C0.688 28.728 0.768 28.808 0.896 28.808H3.84C3.888 28.808 3.92 28.84 3.92 28.888V38.792C3.92 38.92 4 39 4.128 39H4.848C4.976 39 5.056 38.92 5.056 38.792V28.888C5.056 28.84 5.088 28.808 5.136 28.808H8.208C8.336 28.808 8.416 28.728 8.416 28.6V28.008C8.416 27.88 8.336 27.8 8.208 27.8ZM12.3684 39.128C13.8884 39.128 15.0564 38.28 15.4724 36.904C15.6324 36.376 15.6964 35.704 15.6964 34.936C15.6964 34.184 15.6324 33.512 15.4724 32.968C15.0724 31.624 13.9044 30.776 12.3684 30.776C10.7844 30.776 9.63238 31.624 9.21638 32.984C9.07238 33.496 9.00838 34.152 9.00838 34.936C9.00838 35.704 9.07238 36.376 9.23238 36.904C9.64838 38.28 10.8004 39.128 12.3684 39.128ZM12.3684 38.136C11.2964 38.136 10.5284 37.528 10.2884 36.568C10.1924 36.216 10.1604 35.64 10.1604 34.952C10.1604 34.28 10.1924 33.688 10.2884 33.336C10.5444 32.392 11.2964 31.768 12.3364 31.768C13.4084 31.768 14.1764 32.392 14.4164 33.336C14.5124 33.688 14.5444 34.248 14.5444 34.952C14.5444 35.592 14.5124 36.184 14.4164 36.568C14.1604 37.528 13.3924 38.136 12.3684 38.136ZM21.2628 30.824C20.3348 30.824 19.6468 31.304 19.2148 32.04C19.1828 32.104 19.1348 32.088 19.1348 32.008V31.112C19.1348 30.984 19.0548 30.904 18.9268 30.904H18.2068C18.0788 30.904 17.9988 30.984 17.9988 31.112V38.792C17.9988 38.92 18.0788 39 18.2068 39H18.9268C19.0548 39 19.1348 38.92 19.1348 38.792V34.12C19.1348 32.92 19.9508 32.056 21.0548 32.024C21.3908 32.008 21.6468 32.04 21.8388 32.104C21.9828 32.152 22.0628 32.104 22.0948 31.976L22.2548 31.272C22.2868 31.16 22.2548 31.064 22.1428 31.016C21.9348 30.904 21.6628 30.824 21.2628 30.824ZM26.8528 39.128C28.3728 39.128 29.5408 38.28 29.9568 36.904C30.1168 36.376 30.1808 35.704 30.1808 34.936C30.1808 34.184 30.1168 33.512 29.9568 32.968C29.5568 31.624 28.3888 30.776 26.8528 30.776C25.2688 30.776 24.1168 31.624 23.7008 32.984C23.5568 33.496 23.4928 34.152 23.4928 34.936C23.4928 35.704 23.5568 36.376 23.7168 36.904C24.1328 38.28 25.2848 39.128 26.8528 39.128ZM26.8528 38.136C25.7808 38.136 25.0128 37.528 24.7728 36.568C24.6768 36.216 24.6448 35.64 24.6448 34.952C24.6448 34.28 24.6768 33.688 24.7728 33.336C25.0288 32.392 25.7808 31.768 26.8208 31.768C27.8928 31.768 28.6608 32.392 28.9008 33.336C28.9968 33.688 29.0288 34.248 29.0288 34.952C29.0288 35.592 28.9968 36.184 28.9008 36.568C28.6448 37.528 27.8768 38.136 26.8528 38.136ZM35.8431 30.792C34.9151 30.792 34.1631 31.112 33.6991 31.752C33.6671 31.816 33.6191 31.768 33.6191 31.704V31.112C33.6191 30.984 33.5391 30.904 33.4111 30.904H32.6911C32.5631 30.904 32.4831 30.984 32.4831 31.112V38.792C32.4831 38.92 32.5631 39 32.6911 39H33.4111C33.5391 39 33.6191 38.92 33.6191 38.792V33.464C33.7311 32.456 34.4991 31.784 35.5871 31.784C36.7231 31.784 37.4911 32.6 37.4911 33.784V38.792C37.4911 38.92 37.5711 39 37.6991 39H38.4191C38.5471 39 38.6271 38.92 38.6271 38.792V33.56C38.6271 31.88 37.5231 30.792 35.8431 30.792ZM44.7401 31.64V31.112C44.7401 30.984 44.6601 30.904 44.5321 30.904H42.7881C42.7401 30.904 42.7081 30.872 42.7081 30.824V29.032C42.7081 28.904 42.6281 28.824 42.5001 28.824H41.8121C41.6841 28.824 41.6041 28.904 41.6041 29.032V30.824C41.6041 30.872 41.5721 30.904 41.5241 30.904H40.6121C40.4841 30.904 40.4041 30.984 40.4041 31.112V31.64C40.4041 31.768 40.4841 31.848 40.6121 31.848H41.5241C41.5721 31.848 41.6041 31.88 41.6041 31.928V36.952C41.6041 38.616 42.5481 38.984 43.9401 38.984H44.4841C44.6281 38.968 44.6921 38.888 44.6921 38.76V38.2C44.6921 38.072 44.6121 37.992 44.4841 37.992H44.1321C43.1721 37.992 42.7081 37.64 42.7081 36.6V31.928C42.7081 31.88 42.7401 31.848 42.7881 31.848H44.5321C44.6601 31.848 44.7401 31.768 44.7401 31.64ZM49.8059 39.128C51.3259 39.128 52.4939 38.28 52.9099 36.904C53.0699 36.376 53.1339 35.704 53.1339 34.936C53.1339 34.184 53.0699 33.512 52.9099 32.968C52.5099 31.624 51.3419 30.776 49.8059 30.776C48.2219 30.776 47.0699 31.624 46.6539 32.984C46.5099 33.496 46.4459 34.152 46.4459 34.936C46.4459 35.704 46.5099 36.376 46.6699 36.904C47.0859 38.28 48.2379 39.128 49.8059 39.128ZM49.8059 38.136C48.7339 38.136 47.9659 37.528 47.7259 36.568C47.6299 36.216 47.5979 35.64 47.5979 34.952C47.5979 34.28 47.6299 33.688 47.7259 33.336C47.9819 32.392 48.7339 31.768 49.7739 31.768C50.8459 31.768 51.6139 32.392 51.8539 33.336C51.9499 33.688 51.9819 34.248 51.9819 34.952C51.9819 35.592 51.9499 36.184 51.8539 36.568C51.5979 37.528 50.8299 38.136 49.8059 38.136ZM4.96 66.128C7.264 66.128 8.784 64.656 8.784 62.416V58.384C8.784 56.16 7.264 54.672 4.96 54.672C2.672 54.672 1.152 56.16 1.152 58.384V62.416C1.152 64.656 2.672 66.128 4.96 66.128ZM4.96 65.152C3.36 65.152 2.288 64.08 2.288 62.464V58.368C2.288 56.752 3.36 55.664 4.96 55.664C6.576 55.664 7.648 56.752 7.648 58.368V62.464C7.648 64.08 6.576 65.152 4.96 65.152ZM14.5931 57.792C13.6651 57.792 12.9131 58.112 12.4491 58.752C12.4171 58.816 12.3691 58.768 12.3691 58.704V58.112C12.3691 57.984 12.2891 57.904 12.1611 57.904H11.4411C11.3131 57.904 11.2331 57.984 11.2331 58.112V65.792C11.2331 65.92 11.3131 66 11.4411 66H12.1611C12.2891 66 12.3691 65.92 12.3691 65.792V60.464C12.4811 59.456 13.2491 58.784 14.3371 58.784C15.4731 58.784 16.2411 59.6 16.2411 60.784V65.792C16.2411 65.92 16.3211 66 16.4491 66H17.1691C17.2971 66 17.3771 65.92 17.3771 65.792V60.56C17.3771 58.88 16.2731 57.792 14.5931 57.792ZM23.4901 58.64V58.112C23.4901 57.984 23.4101 57.904 23.2821 57.904H21.5381C21.4901 57.904 21.4581 57.872 21.4581 57.824V56.032C21.4581 55.904 21.3781 55.824 21.2501 55.824H20.5621C20.4341 55.824 20.3541 55.904 20.3541 56.032V57.824C20.3541 57.872 20.3221 57.904 20.2741 57.904H19.3621C19.2341 57.904 19.1541 57.984 19.1541 58.112V58.64C19.1541 58.768 19.2341 58.848 19.3621 58.848H20.2741C20.3221 58.848 20.3541 58.88 20.3541 58.928V63.952C20.3541 65.616 21.2981 65.984 22.6901 65.984H23.2341C23.3781 65.968 23.4421 65.888 23.4421 65.76V65.2C23.4421 65.072 23.3621 64.992 23.2341 64.992H22.8821C21.9221 64.992 21.4581 64.64 21.4581 63.6V58.928C21.4581 58.88 21.4901 58.848 21.5381 58.848H23.2821C23.4101 58.848 23.4901 58.768 23.4901 58.64ZM28.4863 57.776C26.8383 57.776 25.6543 58.576 25.4463 59.744C25.4303 59.856 25.5103 59.904 25.6383 59.92L26.4223 60.016C26.5503 60.032 26.6303 59.984 26.6623 59.856C26.8383 59.184 27.4943 58.768 28.5023 58.768C29.8303 58.768 30.3743 59.488 30.3743 60.528V61.12C30.3743 61.168 30.3423 61.2 30.2943 61.2H28.4383C26.3583 61.2 25.1423 62.192 25.1423 63.792C25.1423 65.472 26.4223 66.128 27.7823 66.128C28.7903 66.128 29.6863 65.808 30.2783 65.184C30.3263 65.12 30.3743 65.152 30.3743 65.216V65.792C30.3743 65.92 30.4543 66 30.5823 66H31.3023C31.4303 66 31.5103 65.92 31.5103 65.792V60.464C31.5103 58.88 30.4383 57.776 28.4863 57.776ZM28.0383 65.152C27.0623 65.152 26.2783 64.704 26.2783 63.728C26.2783 62.688 27.2223 62.096 28.6143 62.096H30.2943C30.3423 62.096 30.3743 62.128 30.3743 62.176V63.408C30.3743 64.528 29.2223 65.152 28.0383 65.152ZM37.1221 57.824C36.1941 57.824 35.5061 58.304 35.0741 59.04C35.0421 59.104 34.9941 59.088 34.9941 59.008V58.112C34.9941 57.984 34.9141 57.904 34.7861 57.904H34.0661C33.9381 57.904 33.8581 57.984 33.8581 58.112V65.792C33.8581 65.92 33.9381 66 34.0661 66H34.7861C34.9141 66 34.9941 65.92 34.9941 65.792V61.12C34.9941 59.92 35.8101 59.056 36.9141 59.024C37.2501 59.008 37.5061 59.04 37.6981 59.104C37.8421 59.152 37.9221 59.104 37.9541 58.976L38.1141 58.272C38.1461 58.16 38.1141 58.064 38.0021 58.016C37.7941 57.904 37.5221 57.824 37.1221 57.824ZM40.3743 56.448C40.8863 56.448 41.2383 56.112 41.2383 55.616C41.2383 55.136 40.8863 54.8 40.3743 54.8C39.8623 54.8 39.5103 55.136 39.5103 55.616C39.5103 56.112 39.8623 56.448 40.3743 56.448ZM40.0223 66H40.7423C40.8703 66 40.9503 65.92 40.9503 65.792V58.112C40.9503 57.984 40.8703 57.904 40.7423 57.904H40.0223C39.8943 57.904 39.8143 57.984 39.8143 58.112V65.792C39.8143 65.92 39.8943 66 40.0223 66ZM46.7121 66.128C48.2321 66.128 49.4001 65.28 49.8161 63.904C49.9761 63.376 50.0401 62.704 50.0401 61.936C50.0401 61.184 49.9761 60.512 49.8161 59.968C49.4161 58.624 48.2481 57.776 46.7121 57.776C45.1281 57.776 43.9761 58.624 43.5601 59.984C43.4161 60.496 43.3521 61.152 43.3521 61.936C43.3521 62.704 43.4161 63.376 43.5761 63.904C43.9921 65.28 45.1441 66.128 46.7121 66.128ZM46.7121 65.136C45.6401 65.136 44.8721 64.528 44.6321 63.568C44.5361 63.216 44.5041 62.64 44.5041 61.952C44.5041 61.28 44.5361 60.688 44.6321 60.336C44.8881 59.392 45.6401 58.768 46.6801 58.768C47.7521 58.768 48.5201 59.392 48.7601 60.336C48.8561 60.688 48.8881 61.248 48.8881 61.952C48.8881 62.592 48.8561 63.184 48.7601 63.568C48.5041 64.528 47.7361 65.136 46.7121 65.136ZM55.9776 66H56.6976C56.8256 66 56.9056 65.92 56.9056 65.792V56.96C56.9056 56.88 56.9696 56.88 57.0016 56.944L59.5296 60.944C59.5936 61.04 59.6576 61.088 59.7696 61.088H60.1376C60.2496 61.088 60.3136 61.04 60.3776 60.944L62.9056 56.944C62.9376 56.88 63.0016 56.88 63.0016 56.96V65.792C63.0016 65.92 63.0816 66 63.2096 66H63.9296C64.0576 66 64.1376 65.92 64.1376 65.792V55.008C64.1376 54.88 64.0576 54.8 63.9296 54.8H63.1776C63.0656 54.8 63.0016 54.848 62.9376 54.944L59.9936 59.568C59.9616 59.632 59.9296 59.632 59.8976 59.568L56.9696 54.944C56.9056 54.848 56.8416 54.8 56.7296 54.8H55.9776C55.8496 54.8 55.7696 54.88 55.7696 55.008V65.792C55.7696 65.92 55.8496 66 55.9776 66ZM73.2886 61.888H72.6646C72.6166 61.888 72.5846 61.856 72.5846 61.808V59.296C72.5846 59.168 72.5046 59.088 72.3766 59.088H71.6566C71.5286 59.088 71.4486 59.168 71.4486 59.296V61.808C71.4486 61.856 71.4166 61.888 71.3686 61.888H67.7846C67.7366 61.888 67.7206 61.84 67.7366 61.792L70.8726 55.04C70.9366 54.896 70.8726 54.8 70.7126 54.8H69.9766C69.8646 54.8 69.7686 54.864 69.7206 54.96L66.4886 61.936C66.4566 62.016 66.4246 62.096 66.4246 62.192V62.704C66.4246 62.832 66.5046 62.912 66.6326 62.912H71.3686C71.4166 62.912 71.4486 62.944 71.4486 62.992V65.792C71.4486 65.92 71.5286 66 71.6566 66H72.3766C72.5046 66 72.5846 65.92 72.5846 65.792V62.992C72.5846 62.944 72.6166 62.912 72.6646 62.912H73.2886C73.4166 62.912 73.4966 62.832 73.4966 62.704V62.096C73.4966 61.968 73.4166 61.888 73.2886 61.888ZM80.2131 54.784H76.0531C75.9251 54.784 75.8451 54.864 75.8451 54.992V65.792C75.8451 65.92 75.9251 66 76.0531 66H76.7731C76.9011 66 76.9811 65.92 76.9811 65.792V61.088C76.9811 61.04 77.0131 61.008 77.0611 61.008H80.1651C82.0691 61.008 83.3331 59.776 83.3331 57.92C83.3331 56.032 82.0851 54.784 80.2131 54.784ZM80.0851 60.064H77.0611C77.0131 60.064 76.9811 60.032 76.9811 59.984V55.856C76.9811 55.808 77.0131 55.776 77.0611 55.776H80.0851C81.3491 55.776 82.2131 56.64 82.2131 57.936C82.2131 59.216 81.3491 60.064 80.0851 60.064ZM89.877 54.864L88.133 55.792C88.021 55.856 87.989 55.92 87.989 56.032V56.528C87.989 56.672 88.085 56.752 88.229 56.688L89.909 55.984C89.973 55.952 90.005 56 90.005 56.048V65.792C90.005 65.92 90.085 66 90.213 66H90.933C91.061 66 91.141 65.92 91.141 65.792V55.008C91.141 54.88 91.061 54.8 90.933 54.8H90.149C90.053 54.8 89.957 54.816 89.877 54.864ZM100.801 66H101.569C101.713 66 101.793 65.904 101.745 65.76L98.209 54.976C98.177 54.848 98.097 54.8 97.985 54.8H96.961C96.849 54.8 96.769 54.848 96.737 54.976L93.217 65.76C93.169 65.904 93.249 66 93.393 66H94.161C94.273 66 94.353 65.952 94.385 65.824L95.009 63.872C95.025 63.84 95.041 63.808 95.089 63.808H99.857C99.905 63.808 99.921 63.84 99.937 63.872L100.577 65.824C100.609 65.952 100.689 66 100.801 66ZM95.361 62.784L97.425 56.24C97.441 56.16 97.505 56.16 97.521 56.24L99.601 62.784C99.617 62.848 99.585 62.88 99.537 62.88H95.425C95.377 62.88 95.345 62.848 95.361 62.784ZM109.448 60.736C109 59.68 108.12 59.024 106.728 59.024C105.896 59.024 105.144 59.248 104.616 59.952C104.568 60.016 104.52 60 104.52 59.936V57.616C104.52 56.416 105.368 55.664 106.504 55.664C107.624 55.664 108.392 56.416 108.392 57.504V57.648C108.392 57.728 108.472 57.792 108.6 57.792H109.32C109.448 57.792 109.528 57.712 109.528 57.584V57.408C109.528 55.776 108.312 54.672 106.504 54.672C104.68 54.672 103.384 55.776 103.384 57.536V62.528C103.384 62.992 103.432 63.552 103.576 64.032C103.992 65.328 105.064 66.112 106.616 66.112C108.12 66.112 109.096 65.376 109.528 64.16C109.704 63.744 109.784 63.2 109.784 62.56C109.784 61.776 109.656 61.184 109.448 60.736ZM108.456 63.776C108.2 64.656 107.48 65.12 106.584 65.12C105.576 65.12 104.92 64.56 104.68 63.776C104.568 63.456 104.52 63.104 104.52 62.608C104.52 62.08 104.584 61.648 104.712 61.312C104.968 60.528 105.608 60.016 106.568 60.016C107.544 60.016 108.168 60.528 108.424 61.28C108.568 61.568 108.648 62 108.648 62.56C108.648 63.088 108.568 63.488 108.456 63.776ZM7.168 87.496H4.576C4.528 87.496 4.496 87.464 4.496 87.416V84.76C4.496 84.632 4.416 84.552 4.288 84.552H3.712C3.584 84.552 3.504 84.632 3.504 84.76V87.416C3.504 87.464 3.472 87.496 3.424 87.496H0.832C0.704 87.496 0.624 87.576 0.624 87.704V88.28C0.624 88.408 0.704 88.488 0.832 88.488H3.424C3.472 88.488 3.504 88.52 3.504 88.568V91.096C3.504 91.224 3.584 91.304 3.712 91.304H4.288C4.416 91.304 4.496 91.224 4.496 91.096V88.568C4.496 88.52 4.528 88.488 4.576 88.488H7.168C7.296 88.488 7.376 88.408 7.376 88.28V87.704C7.376 87.576 7.296 87.496 7.168 87.496ZM10.752 81.864L9.008 82.792C8.896 82.856 8.864 82.92 8.864 83.032V83.528C8.864 83.672 8.96 83.752 9.104 83.688L10.784 82.984C10.848 82.952 10.88 83 10.88 83.048V92.792C10.88 92.92 10.96 93 11.088 93H11.808C11.936 93 12.016 92.92 12.016 92.792V82.008C12.016 81.88 11.936 81.8 11.808 81.8H11.024C10.928 81.8 10.832 81.816 10.752 81.864ZM24.3511 88.888H23.7271C23.6791 88.888 23.6471 88.856 23.6471 88.808V86.296C23.6471 86.168 23.5671 86.088 23.4391 86.088H22.7191C22.5911 86.088 22.5111 86.168 22.5111 86.296V88.808C22.5111 88.856 22.4791 88.888 22.4311 88.888H18.8471C18.7991 88.888 18.7831 88.84 18.7991 88.792L21.9351 82.04C21.9991 81.896 21.9351 81.8 21.7751 81.8H21.0391C20.9271 81.8 20.8311 81.864 20.7831 81.96L17.5511 88.936C17.5191 89.016 17.4871 89.096 17.4871 89.192V89.704C17.4871 89.832 17.5671 89.912 17.6951 89.912H22.4311C22.4791 89.912 22.5111 89.944 22.5111 89.992V92.792C22.5111 92.92 22.5911 93 22.7191 93H23.4391C23.5671 93 23.6471 92.92 23.6471 92.792V89.992C23.6471 89.944 23.6791 89.912 23.7271 89.912H24.3511C24.4791 89.912 24.5591 89.832 24.5591 89.704V89.096C24.5591 88.968 24.4791 88.888 24.3511 88.888ZM26.8926 81.864L25.1486 82.792C25.0366 82.856 25.0046 82.92 25.0046 83.032V83.528C25.0046 83.672 25.1006 83.752 25.2446 83.688L26.9246 82.984C26.9886 82.952 27.0206 83 27.0206 83.048V92.792C27.0206 92.92 27.1006 93 27.2286 93H27.9486C28.0766 93 28.1566 92.92 28.1566 92.792V82.008C28.1566 81.88 28.0766 81.8 27.9486 81.8H27.1646C27.0686 81.8 26.9726 81.816 26.8926 81.864ZM36.7446 87.736C36.2966 86.68 35.4166 86.024 34.0246 86.024C33.1926 86.024 32.4406 86.248 31.9126 86.952C31.8646 87.016 31.8166 87 31.8166 86.936V84.616C31.8166 83.416 32.6646 82.664 33.8006 82.664C34.9206 82.664 35.6886 83.416 35.6886 84.504V84.648C35.6886 84.728 35.7686 84.792 35.8966 84.792H36.6166C36.7446 84.792 36.8246 84.712 36.8246 84.584V84.408C36.8246 82.776 35.6086 81.672 33.8006 81.672C31.9766 81.672 30.6806 82.776 30.6806 84.536V89.528C30.6806 89.992 30.7286 90.552 30.8726 91.032C31.2886 92.328 32.3606 93.112 33.9126 93.112C35.4166 93.112 36.3926 92.376 36.8246 91.16C37.0006 90.744 37.0806 90.2 37.0806 89.56C37.0806 88.776 36.9526 88.184 36.7446 87.736ZM35.7526 90.776C35.4966 91.656 34.7766 92.12 33.8806 92.12C32.8726 92.12 32.2166 91.56 31.9766 90.776C31.8646 90.456 31.8166 90.104 31.8166 89.608C31.8166 89.08 31.8806 88.648 32.0086 88.312C32.2646 87.528 32.9046 87.016 33.8646 87.016C34.8406 87.016 35.4646 87.528 35.7206 88.28C35.8646 88.568 35.9446 89 35.9446 89.56C35.9446 90.088 35.8646 90.488 35.7526 90.776ZM48.7261 88.888H48.1021C48.0541 88.888 48.0221 88.856 48.0221 88.808V86.296C48.0221 86.168 47.9421 86.088 47.8141 86.088H47.0941C46.9661 86.088 46.8861 86.168 46.8861 86.296V88.808C46.8861 88.856 46.8541 88.888 46.8061 88.888H43.2221C43.1741 88.888 43.1581 88.84 43.1741 88.792L46.3101 82.04C46.3741 81.896 46.3101 81.8 46.1501 81.8H45.4141C45.3021 81.8 45.2061 81.864 45.1581 81.96L41.9261 88.936C41.8941 89.016 41.8621 89.096 41.8621 89.192V89.704C41.8621 89.832 41.9421 89.912 42.0701 89.912H46.8061C46.8541 89.912 46.8861 89.944 46.8861 89.992V92.792C46.8861 92.92 46.9661 93 47.0941 93H47.8141C47.9421 93 48.0221 92.92 48.0221 92.792V89.992C48.0221 89.944 48.0541 89.912 48.1021 89.912H48.7261C48.8541 89.912 48.9341 89.832 48.9341 89.704V89.096C48.9341 88.968 48.8541 88.888 48.7261 88.888ZM56.9146 88.296C56.6746 87.736 56.3066 87.336 55.8266 87.064C55.7626 87.032 55.7626 87 55.8266 86.952C56.1946 86.728 56.5146 86.408 56.7386 86.072C57.0426 85.656 57.2026 85.144 57.2026 84.552C57.2026 84.008 57.0586 83.496 56.8506 83.128C56.3386 82.152 55.3626 81.64 54.0186 81.64C52.8026 81.64 51.8106 82.136 51.2826 82.984C50.9946 83.416 50.8346 83.944 50.8346 84.552C50.8346 85.144 51.0106 85.688 51.3146 86.12C51.5386 86.44 51.8586 86.728 52.2106 86.952C52.2746 86.984 52.2586 87.016 52.2106 87.048C51.7466 87.32 51.3946 87.72 51.1386 88.248C50.9466 88.68 50.8186 89.224 50.8186 89.848C50.8186 90.536 50.9626 91.144 51.2506 91.656C51.7626 92.6 52.7546 93.128 54.0186 93.128C55.2986 93.128 56.2586 92.6 56.7706 91.736C57.0426 91.256 57.2186 90.664 57.2186 89.864C57.2186 89.256 57.1226 88.728 56.9146 88.296ZM51.9546 84.648C51.9546 84.264 52.0506 83.912 52.2106 83.608C52.5466 83 53.1706 82.616 54.0026 82.616C54.8826 82.616 55.5066 83.016 55.8426 83.608C56.0026 83.896 56.0826 84.248 56.0826 84.632C56.0826 85.048 55.9866 85.432 55.7786 85.752C55.4106 86.296 54.8186 86.648 54.0346 86.648H53.9386C53.2026 86.632 52.6426 86.312 52.3066 85.816C52.0826 85.496 51.9546 85.096 51.9546 84.648ZM55.6986 91.336C55.3466 91.864 54.7866 92.152 54.0186 92.152C53.2346 92.152 52.6586 91.848 52.3066 91.272C52.0986 90.888 51.9706 90.392 51.9706 89.8C51.9706 89.384 52.0346 88.952 52.1946 88.616C52.4986 87.912 53.0906 87.464 54.0186 87.464C54.9466 87.464 55.6026 87.912 55.8906 88.664C56.0026 88.984 56.0826 89.368 56.0826 89.768C56.0826 90.44 55.9386 90.936 55.6986 91.336ZM65.4675 88.104C65.1635 86.728 64.0115 85.992 62.5395 85.992C61.7395 85.992 60.9875 86.264 60.4595 86.744C60.4115 86.792 60.3635 86.776 60.3635 86.696L60.3795 82.872C60.3795 82.808 60.4115 82.792 60.4595 82.792H64.9555C65.0835 82.792 65.1635 82.712 65.1635 82.584V82.008C65.1635 81.88 65.0835 81.8 64.9555 81.8H59.4515C59.3235 81.8 59.2435 81.88 59.2435 82.008V88.056C59.2435 88.184 59.3235 88.264 59.4515 88.264H60.2355C60.3475 88.264 60.4275 88.216 60.4755 88.088C60.7475 87.384 61.5155 87 62.4115 87C63.4515 87 64.2195 87.496 64.3795 88.504C64.4435 88.92 64.4595 89.288 64.4595 89.56C64.4595 89.768 64.4435 90.2 64.3635 90.504C64.1555 91.496 63.4355 92.12 62.4115 92.12C61.3875 92.12 60.6835 91.512 60.4755 90.616C60.4435 90.52 60.4115 90.424 60.4115 90.344C60.3955 90.2 60.3155 90.136 60.1875 90.136H59.4515C59.3235 90.136 59.2275 90.216 59.2435 90.36C59.2755 90.552 59.3235 90.776 59.3875 91C59.7715 92.264 60.8755 93.112 62.4115 93.112C63.9475 93.112 65.0995 92.248 65.4675 90.888C65.5955 90.392 65.6115 89.944 65.6115 89.544C65.6115 89.208 65.5955 88.728 65.4675 88.104ZM70.7614 93H77.0494C77.1774 93 77.2574 92.92 77.2574 92.792V92.216C77.2574 92.088 77.1774 92.008 77.0494 92.008H72.1534C72.0894 92.008 72.0574 91.96 72.1054 91.912C73.2574 90.504 74.3934 89.144 75.4174 87.8C76.3934 86.552 76.9214 85.464 76.9214 84.52C76.9214 82.872 75.6574 81.672 73.6894 81.672C71.8814 81.672 70.5694 82.76 70.5214 84.408V85C70.5214 85.128 70.6014 85.208 70.7294 85.208H71.4654C71.5934 85.208 71.6734 85.128 71.6734 85V84.552C71.6574 83.416 72.4734 82.664 73.6894 82.664C74.9374 82.664 75.7694 83.416 75.7694 84.536C75.7694 85.288 75.2094 86.296 74.2654 87.496C73.1134 88.936 71.9134 90.44 70.6494 91.944C70.5854 92.024 70.5534 92.104 70.5534 92.2V92.792C70.5534 92.92 70.6334 93 70.7614 93ZM85.2915 83.768C84.8755 82.472 83.8035 81.688 82.2515 81.688C80.7475 81.688 79.7715 82.424 79.3395 83.64C79.1635 84.056 79.0835 84.6 79.0835 85.24C79.0835 86.024 79.2115 86.616 79.4195 87.064C79.8675 88.12 80.7475 88.776 82.1395 88.776C82.9715 88.776 83.7235 88.552 84.2515 87.848C84.2995 87.784 84.3475 87.8 84.3475 87.864V90.184C84.3475 91.384 83.4995 92.136 82.3635 92.136C81.2435 92.136 80.4755 91.384 80.4755 90.296V90.152C80.4755 90.072 80.3955 90.008 80.2675 90.008H79.5475C79.4195 90.008 79.3395 90.088 79.3395 90.216V90.392C79.3395 92.024 80.5555 93.128 82.3635 93.128C84.1875 93.128 85.4835 92.024 85.4835 90.264V85.272C85.4835 84.808 85.4355 84.248 85.2915 83.768ZM82.2995 87.784C81.3235 87.784 80.6995 87.272 80.4435 86.52C80.2995 86.232 80.2195 85.8 80.2195 85.24C80.2195 84.712 80.2995 84.312 80.4115 84.024C80.6675 83.144 81.3875 82.68 82.2835 82.68C83.2915 82.68 83.9475 83.24 84.1875 84.024C84.2995 84.344 84.3475 84.696 84.3475 85.192C84.3475 85.72 84.2835 86.152 84.1555 86.488C83.8995 87.272 83.2595 87.784 82.2995 87.784ZM93.6353 83.768C93.2193 82.472 92.1473 81.688 90.5953 81.688C89.0913 81.688 88.1153 82.424 87.6833 83.64C87.5073 84.056 87.4273 84.6 87.4273 85.24C87.4273 86.024 87.5553 86.616 87.7633 87.064C88.2113 88.12 89.0913 88.776 90.4833 88.776C91.3153 88.776 92.0673 88.552 92.5953 87.848C92.6433 87.784 92.6913 87.8 92.6913 87.864V90.184C92.6913 91.384 91.8433 92.136 90.7073 92.136C89.5873 92.136 88.8193 91.384 88.8193 90.296V90.152C88.8193 90.072 88.7393 90.008 88.6113 90.008H87.8913C87.7633 90.008 87.6833 90.088 87.6833 90.216V90.392C87.6833 92.024 88.8993 93.128 90.7073 93.128C92.5313 93.128 93.8273 92.024 93.8273 90.264V85.272C93.8273 84.808 93.7793 84.248 93.6353 83.768ZM90.6432 87.784C89.6673 87.784 89.0433 87.272 88.7873 86.52C88.6432 86.232 88.5633 85.8 88.5633 85.24C88.5633 84.712 88.6432 84.312 88.7553 84.024C89.0113 83.144 89.7313 82.68 90.6273 82.68C91.6353 82.68 92.2913 83.24 92.5313 84.024C92.6433 84.344 92.6913 84.696 92.6913 85.192C92.6913 85.72 92.6273 86.152 92.4993 86.488C92.2433 87.272 91.6033 87.784 90.6432 87.784ZM97.355 93H98.155C98.267 93 98.363 92.952 98.395 92.84L102.043 82.92C102.075 82.84 102.091 82.76 102.091 82.664V82.008C102.091 81.88 102.011 81.8 101.883 81.8H95.675C95.547 81.8 95.467 81.864 95.467 82.008L95.451 83.544C95.451 83.688 95.531 83.752 95.659 83.752H96.219C96.347 83.752 96.427 83.672 96.427 83.544V82.872C96.427 82.824 96.459 82.792 96.507 82.792H100.795C100.843 82.792 100.875 82.824 100.859 82.888L97.195 92.76C97.147 92.904 97.211 93 97.355 93Z" fill="#333D4B"/>
</svg>
