<svg width="134" height="94" viewBox="0 0 134 94" fill="none" xmlns="http://www.w3.org/2000/svg">
<path d="M6.88 6.704C6.48 5.728 5.712 5.168 4.528 5.088C4.448 5.088 4.432 5.04 4.464 4.992L7.04 1.904C7.104 1.824 7.136 1.744 7.136 1.648V1.008C7.136 0.879999 7.056 0.799999 6.928 0.799999H1.104C0.976 0.799999 0.896 0.879999 0.896 1.008V1.584C0.896 1.712 0.976 1.792 1.104 1.792H5.584C5.648 1.792 5.68 1.824 5.632 1.888L2.848 5.152C2.768 5.248 2.768 5.344 2.848 5.44L3.2 5.856C3.28 5.952 3.36 5.968 3.472 5.92C3.648 5.856 3.792 5.824 3.984 5.824C4.864 5.824 5.472 6.208 5.776 6.976C5.968 7.392 6.064 7.92 6.064 8.544C6.064 9.04 5.984 9.488 5.84 9.872C5.568 10.688 4.928 11.136 4 11.136C2.96 11.136 2.272 10.512 2.048 9.616C2 9.408 1.968 9.072 1.952 8.8C1.952 8.656 1.872 8.592 1.744 8.592H1.008C0.88 8.592 0.8 8.672 0.8 8.8C0.816 9.152 0.864 9.584 0.976 9.968C1.36 11.248 2.464 12.128 4 12.128C5.504 12.128 6.528 11.408 6.96 10.112C7.104 9.68 7.2 9.168 7.2 8.576C7.2 7.84 7.088 7.216 6.88 6.704ZM15.354 6.736C14.906 5.68 14.026 5.024 12.634 5.024C11.802 5.024 11.05 5.248 10.522 5.952C10.474 6.016 10.426 6 10.426 5.936V3.616C10.426 2.416 11.274 1.664 12.41 1.664C13.53 1.664 14.298 2.416 14.298 3.504V3.648C14.298 3.728 14.378 3.792 14.506 3.792H15.226C15.354 3.792 15.434 3.712 15.434 3.584V3.408C15.434 1.776 14.218 0.672 12.41 0.672C10.586 0.672 9.29 1.776 9.29 3.536V8.528C9.29 8.992 9.338 9.552 9.482 10.032C9.898 11.328 10.97 12.112 12.522 12.112C14.026 12.112 15.002 11.376 15.434 10.16C15.61 9.744 15.69 9.2 15.69 8.56C15.69 7.776 15.562 7.184 15.354 6.736ZM14.362 9.776C14.106 10.656 13.386 11.12 12.49 11.12C11.482 11.12 10.826 10.56 10.586 9.776C10.474 9.456 10.426 9.104 10.426 8.608C10.426 8.08 10.49 7.648 10.618 7.312C10.874 6.528 11.514 6.016 12.474 6.016C13.45 6.016 14.074 6.528 14.33 7.28C14.474 7.568 14.554 8 14.554 8.56C14.554 9.088 14.474 9.488 14.362 9.776ZM24.4555 12.128C26.8395 12.128 28.1835 10.928 28.1835 9.184C28.1835 7.36 26.6795 6.608 24.7115 5.808C22.7755 5.056 21.8795 4.672 21.8795 3.472C21.8795 2.304 22.7115 1.664 24.2155 1.664C26.0075 1.664 26.9675 2.576 26.9675 3.776V4.016C26.9675 4.144 27.0475 4.224 27.1755 4.224H27.8795C28.0075 4.224 28.0875 4.144 28.0875 4.016V3.712C28.0875 1.888 26.6475 0.672 24.2795 0.672C22.1035 0.672 20.7595 1.696 20.7595 3.504C20.7595 5.344 22.1835 5.936 24.1035 6.704C26.1835 7.568 27.0475 8.096 27.0475 9.232C27.0475 10.352 26.2155 11.136 24.5355 11.136C22.7755 11.136 21.7035 10.272 21.7035 9.072V8.688C21.7035 8.56 21.6235 8.48 21.4955 8.48H20.8075C20.6795 8.48 20.5995 8.56 20.5995 8.688V9.136C20.5995 10.944 22.0875 12.128 24.4555 12.128ZM32.0545 12H32.8545C32.9665 12 33.0465 11.952 33.0785 11.824L34.7425 5.92C34.7585 5.856 34.8225 5.856 34.8385 5.92L36.5665 11.824C36.5985 11.952 36.6785 12 36.7905 12H37.5745C37.6865 12 37.7665 11.952 37.7985 11.824L40.0705 4.16C40.1185 4.016 40.0385 3.92 39.8945 3.92L39.1585 3.904C39.0465 3.904 38.9505 3.952 38.9185 4.08L37.2065 10.32C37.1905 10.384 37.1265 10.384 37.1105 10.32L35.3665 4.08C35.3345 3.952 35.2545 3.904 35.1425 3.904H34.4385C34.3265 3.904 34.2465 3.952 34.2145 4.08L32.5025 10.32C32.4865 10.384 32.4225 10.384 32.4065 10.32L30.7425 4.08C30.7105 3.952 30.6305 3.904 30.5185 3.904H29.7665C29.6225 3.904 29.5425 4 29.5905 4.144L31.8305 11.824C31.8625 11.952 31.9425 12 32.0545 12ZM44.5019 3.776C42.8539 3.776 41.6699 4.576 41.4619 5.744C41.4459 5.856 41.5259 5.904 41.6539 5.92L42.4379 6.016C42.5659 6.032 42.6459 5.984 42.6779 5.856C42.8539 5.184 43.5099 4.768 44.5179 4.768C45.8459 4.768 46.3899 5.488 46.3899 6.528V7.12C46.3899 7.168 46.3579 7.2 46.3099 7.2H44.4539C42.3739 7.2 41.1579 8.192 41.1579 9.792C41.1579 11.472 42.4379 12.128 43.7979 12.128C44.8059 12.128 45.7019 11.808 46.2939 11.184C46.3419 11.12 46.3899 11.152 46.3899 11.216V11.792C46.3899 11.92 46.4699 12 46.5979 12H47.3179C47.4459 12 47.5259 11.92 47.5259 11.792V6.464C47.5259 4.88 46.4539 3.776 44.5019 3.776ZM44.0539 11.152C43.0779 11.152 42.2939 10.704 42.2939 9.728C42.2939 8.688 43.2379 8.096 44.6299 8.096H46.3099C46.3579 8.096 46.3899 8.128 46.3899 8.176V9.408C46.3899 10.528 45.2379 11.152 44.0539 11.152ZM53.2338 3.792C52.3058 3.792 51.5538 4.112 51.0898 4.752C51.0578 4.816 51.0098 4.768 51.0098 4.704V4.112C51.0098 3.984 50.9298 3.904 50.8018 3.904H50.0818C49.9538 3.904 49.8738 3.984 49.8738 4.112V11.792C49.8738 11.92 49.9538 12 50.0818 12H50.8018C50.9298 12 51.0098 11.92 51.0098 11.792V6.464C51.1218 5.456 51.8898 4.784 52.9778 4.784C54.1138 4.784 54.8818 5.6 54.8818 6.784V11.792C54.8818 11.92 54.9618 12 55.0898 12H55.8098C55.9378 12 56.0178 11.92 56.0178 11.792V6.56C56.0178 4.88 54.9138 3.792 53.2338 3.792ZM61.1548 12.08C62.9628 12.08 64.1308 11.168 64.1308 9.792C64.1308 8.208 62.5788 7.776 61.2188 7.392C60.1308 7.072 59.2668 6.784 59.2668 5.984C59.2668 5.216 60.0028 4.752 61.0748 4.752C62.2748 4.752 62.9948 5.328 62.9948 6.032V6.128C62.9948 6.192 63.0748 6.24 63.2028 6.24H63.8588C63.9868 6.24 64.0668 6.16 64.0668 6.032C64.0668 4.768 62.8828 3.824 61.0908 3.824C59.3628 3.824 58.1628 4.688 58.1628 6.064C58.1628 7.584 59.6348 8.048 61.0108 8.448C62.0668 8.768 62.9948 9.008 62.9948 9.872C62.9948 10.624 62.2588 11.2 61.1388 11.2C59.9868 11.2 59.2188 10.56 59.2188 9.888V9.744C59.2188 9.664 59.1388 9.6 59.0108 9.6H58.3228C58.1948 9.6 58.1148 9.68 58.1148 9.808V9.952C58.1148 11.12 59.3148 12.08 61.1548 12.08ZM69.8339 4.64V4.112C69.8339 3.984 69.7539 3.904 69.6259 3.904H67.8819C67.8339 3.904 67.8019 3.872 67.8019 3.824V2.032C67.8019 1.904 67.7219 1.824 67.5939 1.824H66.9059C66.7779 1.824 66.6979 1.904 66.6979 2.032V3.824C66.6979 3.872 66.6659 3.904 66.6179 3.904H65.7059C65.5779 3.904 65.4979 3.984 65.4979 4.112V4.64C65.4979 4.768 65.5779 4.848 65.7059 4.848H66.6179C66.6659 4.848 66.6979 4.88 66.6979 4.928V9.952C66.6979 11.616 67.6419 11.984 69.0339 11.984H69.5779C69.7219 11.968 69.7859 11.888 69.7859 11.76V11.2C69.7859 11.072 69.7059 10.992 69.5779 10.992H69.2259C68.2659 10.992 67.8019 10.64 67.8019 9.6V4.928C67.8019 4.88 67.8339 4.848 67.8819 4.848H69.6259C69.7539 4.848 69.8339 4.768 69.8339 4.64ZM74.8996 12.128C76.4196 12.128 77.5876 11.28 78.0036 9.904C78.1636 9.376 78.2276 8.704 78.2276 7.936C78.2276 7.184 78.1636 6.512 78.0036 5.968C77.6036 4.624 76.4356 3.776 74.8996 3.776C73.3156 3.776 72.1636 4.624 71.7476 5.984C71.6036 6.496 71.5396 7.152 71.5396 7.936C71.5396 8.704 71.6036 9.376 71.7636 9.904C72.1796 11.28 73.3316 12.128 74.8996 12.128ZM74.8996 11.136C73.8276 11.136 73.0596 10.528 72.8196 9.568C72.7236 9.216 72.6916 8.64 72.6916 7.952C72.6916 7.28 72.7236 6.688 72.8196 6.336C73.0756 5.392 73.8276 4.768 74.8676 4.768C75.9396 4.768 76.7076 5.392 76.9476 6.336C77.0436 6.688 77.0756 7.248 77.0756 7.952C77.0756 8.592 77.0436 9.184 76.9476 9.568C76.6916 10.528 75.9236 11.136 74.8996 11.136ZM83.89 3.792C82.962 3.792 82.21 4.112 81.746 4.752C81.714 4.816 81.666 4.768 81.666 4.704V4.112C81.666 3.984 81.586 3.904 81.458 3.904H80.738C80.61 3.904 80.53 3.984 80.53 4.112V11.792C80.53 11.92 80.61 12 80.738 12H81.458C81.586 12 81.666 11.92 81.666 11.792V6.464C81.778 5.456 82.546 4.784 83.634 4.784C84.77 4.784 85.538 5.6 85.538 6.784V11.792C85.538 11.92 85.618 12 85.746 12H86.466C86.594 12 86.674 11.92 86.674 11.792V6.56C86.674 4.88 85.57 3.792 83.89 3.792ZM95.8461 12.128C98.2301 12.128 99.5741 10.928 99.5741 9.184C99.5741 7.36 98.0701 6.608 96.1021 5.808C94.1661 5.056 93.2701 4.672 93.2701 3.472C93.2701 2.304 94.1021 1.664 95.6061 1.664C97.3981 1.664 98.3581 2.576 98.3581 3.776V4.016C98.3581 4.144 98.4381 4.224 98.5661 4.224H99.2701C99.3981 4.224 99.4781 4.144 99.4781 4.016V3.712C99.4781 1.888 98.0381 0.672 95.6701 0.672C93.4941 0.672 92.1501 1.696 92.1501 3.504C92.1501 5.344 93.5741 5.936 95.4941 6.704C97.5741 7.568 98.4381 8.096 98.4381 9.232C98.4381 10.352 97.6061 11.136 95.9261 11.136C94.1661 11.136 93.0941 10.272 93.0941 9.072V8.688C93.0941 8.56 93.0141 8.48 92.8861 8.48H92.1981C92.0701 8.48 91.9901 8.56 91.9901 8.688V9.136C91.9901 10.944 93.4781 12.128 95.8461 12.128ZM105.365 4.64V4.112C105.365 3.984 105.285 3.904 105.157 3.904H103.413C103.365 3.904 103.333 3.872 103.333 3.824V2.032C103.333 1.904 103.253 1.824 103.125 1.824H102.437C102.309 1.824 102.229 1.904 102.229 2.032V3.824C102.229 3.872 102.197 3.904 102.149 3.904H101.237C101.109 3.904 101.029 3.984 101.029 4.112V4.64C101.029 4.768 101.109 4.848 101.237 4.848H102.149C102.197 4.848 102.229 4.88 102.229 4.928V9.952C102.229 11.616 103.173 11.984 104.565 11.984H105.109C105.253 11.968 105.317 11.888 105.317 11.76V11.2C105.317 11.072 105.237 10.992 105.109 10.992H104.757C103.797 10.992 103.333 10.64 103.333 9.6V4.928C103.333 4.88 103.365 4.848 103.413 4.848H105.157C105.285 4.848 105.365 4.768 105.365 4.64ZM110.825 3.824C109.897 3.824 109.209 4.304 108.777 5.04C108.745 5.104 108.697 5.088 108.697 5.008V4.112C108.697 3.984 108.617 3.904 108.489 3.904H107.769C107.641 3.904 107.561 3.984 107.561 4.112V11.792C107.561 11.92 107.641 12 107.769 12H108.489C108.617 12 108.697 11.92 108.697 11.792V7.12C108.697 5.92 109.513 5.056 110.617 5.024C110.953 5.008 111.209 5.04 111.401 5.104C111.545 5.152 111.625 5.104 111.657 4.976L111.817 4.272C111.849 4.16 111.817 4.064 111.705 4.016C111.497 3.904 111.225 3.824 110.825 3.824ZM116.463 11.152C115.295 11.152 114.511 10.512 114.287 9.584C114.223 9.344 114.191 8.944 114.191 8.416C114.191 8.368 114.223 8.336 114.271 8.336H119.391C119.519 8.336 119.599 8.256 119.599 8.128C119.599 7.376 119.583 6.96 119.503 6.528C119.215 4.848 118.207 3.776 116.303 3.776C114.719 3.776 113.567 4.688 113.215 6.064C113.087 6.56 113.071 7.104 113.071 7.92C113.071 8.816 113.151 9.536 113.375 10.128C113.807 11.36 114.847 12.128 116.367 12.128C117.807 12.128 118.847 11.424 119.343 10.384C119.407 10.272 119.359 10.176 119.247 10.112L118.783 9.856C118.671 9.792 118.559 9.84 118.511 9.952C118.143 10.672 117.455 11.136 116.463 11.152ZM116.303 4.768C117.407 4.768 118.143 5.408 118.367 6.336C118.415 6.56 118.447 6.928 118.463 7.36C118.463 7.408 118.431 7.44 118.383 7.44H114.271C114.223 7.44 114.191 7.408 114.191 7.36C114.207 6.896 114.239 6.528 114.319 6.272C114.527 5.392 115.215 4.768 116.303 4.768ZM125.01 11.152C123.842 11.152 123.058 10.512 122.834 9.584C122.77 9.344 122.738 8.944 122.738 8.416C122.738 8.368 122.77 8.336 122.818 8.336H127.938C128.066 8.336 128.146 8.256 128.146 8.128C128.146 7.376 128.13 6.96 128.05 6.528C127.762 4.848 126.754 3.776 124.85 3.776C123.266 3.776 122.114 4.688 121.762 6.064C121.634 6.56 121.618 7.104 121.618 7.92C121.618 8.816 121.698 9.536 121.922 10.128C122.354 11.36 123.394 12.128 124.914 12.128C126.354 12.128 127.394 11.424 127.89 10.384C127.954 10.272 127.906 10.176 127.794 10.112L127.33 9.856C127.218 9.792 127.106 9.84 127.058 9.952C126.69 10.672 126.002 11.136 125.01 11.152ZM124.85 4.768C125.954 4.768 126.69 5.408 126.914 6.336C126.962 6.56 126.994 6.928 127.01 7.36C127.01 7.408 126.978 7.44 126.93 7.44H122.818C122.77 7.44 122.738 7.408 122.738 7.36C122.754 6.896 122.786 6.528 122.866 6.272C123.074 5.392 123.762 4.768 124.85 4.768ZM133.928 4.64V4.112C133.928 3.984 133.848 3.904 133.72 3.904H131.976C131.928 3.904 131.896 3.872 131.896 3.824V2.032C131.896 1.904 131.816 1.824 131.688 1.824H131C130.872 1.824 130.792 1.904 130.792 2.032V3.824C130.792 3.872 130.76 3.904 130.712 3.904H129.8C129.672 3.904 129.592 3.984 129.592 4.112V4.64C129.592 4.768 129.672 4.848 129.8 4.848H130.712C130.76 4.848 130.792 4.88 130.792 4.928V9.952C130.792 11.616 131.736 11.984 133.128 11.984H133.672C133.816 11.968 133.88 11.888 133.88 11.76V11.2C133.88 11.072 133.8 10.992 133.672 10.992H133.32C132.36 10.992 131.896 10.64 131.896 9.6V4.928C131.896 4.88 131.928 4.848 131.976 4.848H133.72C133.848 4.848 133.928 4.768 133.928 4.64ZM1.712 39H2.432C2.56 39 2.64 38.92 2.64 38.792V35.032C2.64 35 2.656 34.952 2.672 34.92L4.176 33.336C4.208 33.288 4.256 33.304 4.288 33.352L8.048 38.872C8.112 38.952 8.192 39 8.304 39H9.136C9.296 39 9.36 38.888 9.264 38.744L5.056 32.536C5.04 32.504 5.04 32.472 5.072 32.424L8.928 28.056C9.04 27.928 8.992 27.8 8.816 27.8H8.016C7.92 27.8 7.824 27.832 7.76 27.912L2.736 33.384C2.688 33.448 2.64 33.416 2.64 33.352V28.008C2.64 27.88 2.56 27.8 2.432 27.8H1.712C1.584 27.8 1.504 27.88 1.504 28.008V38.792C1.504 38.92 1.584 39 1.712 39ZM13.9789 38.152C12.8109 38.152 12.0269 37.512 11.8029 36.584C11.7389 36.344 11.7069 35.944 11.7069 35.416C11.7069 35.368 11.7389 35.336 11.7869 35.336H16.9069C17.0349 35.336 17.1149 35.256 17.1149 35.128C17.1149 34.376 17.0989 33.96 17.0189 33.528C16.7309 31.848 15.7229 30.776 13.8189 30.776C12.2349 30.776 11.0829 31.688 10.7309 33.064C10.6029 33.56 10.5869 34.104 10.5869 34.92C10.5869 35.816 10.6669 36.536 10.8909 37.128C11.3229 38.36 12.3629 39.128 13.8829 39.128C15.3229 39.128 16.3629 38.424 16.8589 37.384C16.9229 37.272 16.8749 37.176 16.7629 37.112L16.2989 36.856C16.1869 36.792 16.0749 36.84 16.0269 36.952C15.6589 37.672 14.9709 38.136 13.9789 38.152ZM13.8189 31.768C14.9229 31.768 15.6589 32.408 15.8829 33.336C15.9309 33.56 15.9629 33.928 15.9789 34.36C15.9789 34.408 15.9469 34.44 15.8989 34.44H11.7869C11.7389 34.44 11.7069 34.408 11.7069 34.36C11.7229 33.896 11.7549 33.528 11.8349 33.272C12.0429 32.392 12.7309 31.768 13.8189 31.768ZM20.8826 39H21.6826C21.7946 39 21.8746 38.952 21.9066 38.824L23.5706 32.92C23.5866 32.856 23.6506 32.856 23.6666 32.92L25.3946 38.824C25.4266 38.952 25.5066 39 25.6186 39H26.4026C26.5146 39 26.5946 38.952 26.6266 38.824L28.8986 31.16C28.9466 31.016 28.8666 30.92 28.7226 30.92L27.9866 30.904C27.8746 30.904 27.7786 30.952 27.7466 31.08L26.0346 37.32C26.0186 37.384 25.9546 37.384 25.9386 37.32L24.1946 31.08C24.1626 30.952 24.0826 30.904 23.9706 30.904H23.2666C23.1546 30.904 23.0746 30.952 23.0426 31.08L21.3306 37.32C21.3146 37.384 21.2506 37.384 21.2346 37.32L19.5706 31.08C19.5386 30.952 19.4586 30.904 19.3466 30.904H18.5946C18.4506 30.904 18.3706 31 18.4186 31.144L20.6586 38.824C20.6906 38.952 20.7706 39 20.8826 39ZM33.5883 38.152C32.4203 38.152 31.6363 37.512 31.4123 36.584C31.3483 36.344 31.3163 35.944 31.3163 35.416C31.3163 35.368 31.3483 35.336 31.3963 35.336H36.5163C36.6443 35.336 36.7243 35.256 36.7243 35.128C36.7243 34.376 36.7083 33.96 36.6283 33.528C36.3403 31.848 35.3323 30.776 33.4283 30.776C31.8443 30.776 30.6923 31.688 30.3403 33.064C30.2122 33.56 30.1963 34.104 30.1963 34.92C30.1963 35.816 30.2763 36.536 30.5003 37.128C30.9323 38.36 31.9723 39.128 33.4923 39.128C34.9323 39.128 35.9723 38.424 36.4683 37.384C36.5323 37.272 36.4843 37.176 36.3723 37.112L35.9083 36.856C35.7963 36.792 35.6843 36.84 35.6363 36.952C35.2683 37.672 34.5803 38.136 33.5883 38.152ZM33.4283 31.768C34.5323 31.768 35.2683 32.408 35.4923 33.336C35.5403 33.56 35.5723 33.928 35.5883 34.36C35.5883 34.408 35.5563 34.44 35.5083 34.44H31.3963C31.3483 34.44 31.3163 34.408 31.3163 34.36C31.3323 33.896 31.3643 33.528 31.4443 33.272C31.6523 32.392 32.3403 31.768 33.4283 31.768ZM39.1911 39H39.9111C40.0391 39 40.1191 38.92 40.1191 38.792V28.008C40.1191 27.88 40.0391 27.8 39.9111 27.8H39.1911C39.0631 27.8 38.9831 27.88 38.9831 28.008V38.792C38.9831 38.92 39.0631 39 39.1911 39ZM42.9099 39H43.6299C43.7579 39 43.8379 38.92 43.8379 38.792V28.008C43.8379 27.88 43.7579 27.8 43.6299 27.8H42.9099C42.7819 27.8 42.7019 27.88 42.7019 28.008V38.792C42.7019 38.92 42.7819 39 42.9099 39ZM4.288 66H5.104C5.216 66 5.296 65.952 5.328 65.824L8.832 55.04C8.88 54.896 8.8 54.8 8.656 54.8H7.904C7.792 54.8 7.712 54.848 7.68 54.976L4.768 64.272C4.752 64.352 4.688 64.352 4.672 64.272L1.76 54.976C1.728 54.848 1.648 54.8 1.536 54.8H0.768C0.624 54.8 0.544 54.896 0.592 55.04L4.064 65.824C4.096 65.952 4.176 66 4.288 66ZM11.3899 56.448C11.9019 56.448 12.2539 56.112 12.2539 55.616C12.2539 55.136 11.9019 54.8 11.3899 54.8C10.8779 54.8 10.5259 55.136 10.5259 55.616C10.5259 56.112 10.8779 56.448 11.3899 56.448ZM11.0379 66H11.7579C11.8859 66 11.9659 65.92 11.9659 65.792V58.112C11.9659 57.984 11.8859 57.904 11.7579 57.904H11.0379C10.9099 57.904 10.8299 57.984 10.8299 58.112V65.792C10.8299 65.92 10.9099 66 11.0379 66ZM17.6798 66.128C19.2478 66.128 20.4958 65.28 20.8158 64.048C20.8478 63.936 20.8638 63.84 20.8798 63.776C20.8958 63.632 20.8158 63.552 20.6878 63.536L19.9998 63.424C19.8718 63.408 19.7758 63.456 19.7598 63.6L19.7438 63.616C19.7438 63.632 19.7438 63.664 19.7278 63.696C19.5518 64.512 18.7518 65.136 17.6798 65.136C16.5918 65.136 15.8558 64.496 15.6478 63.568C15.5678 63.248 15.5038 62.72 15.5038 61.936C15.5038 61.216 15.5678 60.656 15.6478 60.32C15.8558 59.408 16.5918 58.768 17.6798 58.768C18.7838 58.768 19.5678 59.44 19.7438 60.224C19.7598 60.288 19.7758 60.352 19.7758 60.416C19.8078 60.56 19.8878 60.608 20.0158 60.592L20.7198 60.512C20.8478 60.496 20.9278 60.416 20.9118 60.272C20.8958 60.16 20.8638 60 20.8158 59.84C20.4958 58.704 19.2958 57.776 17.6798 57.776C16.1278 57.776 14.9598 58.656 14.5758 59.968C14.4478 60.464 14.3678 61.04 14.3678 61.92C14.3678 62.736 14.4158 63.36 14.5758 63.904C14.9758 65.248 16.1118 66.128 17.6798 66.128ZM26.5683 58.64V58.112C26.5683 57.984 26.4883 57.904 26.3602 57.904H24.6163C24.5683 57.904 24.5363 57.872 24.5363 57.824V56.032C24.5363 55.904 24.4563 55.824 24.3283 55.824H23.6403C23.5123 55.824 23.4323 55.904 23.4323 56.032V57.824C23.4323 57.872 23.4003 57.904 23.3523 57.904H22.4403C22.3123 57.904 22.2323 57.984 22.2323 58.112V58.64C22.2323 58.768 22.3123 58.848 22.4403 58.848H23.3523C23.4003 58.848 23.4323 58.88 23.4323 58.928V63.952C23.4323 65.616 24.3763 65.984 25.7682 65.984H26.3123C26.4563 65.968 26.5203 65.888 26.5203 65.76V65.2C26.5203 65.072 26.4403 64.992 26.3123 64.992H25.9603C25.0003 64.992 24.5363 64.64 24.5363 63.6V58.928C24.5363 58.88 24.5683 58.848 24.6163 58.848H26.3602C26.4883 58.848 26.5683 58.768 26.5683 58.64ZM31.634 66.128C33.154 66.128 34.322 65.28 34.738 63.904C34.898 63.376 34.962 62.704 34.962 61.936C34.962 61.184 34.898 60.512 34.738 59.968C34.338 58.624 33.17 57.776 31.634 57.776C30.05 57.776 28.898 58.624 28.482 59.984C28.338 60.496 28.274 61.152 28.274 61.936C28.274 62.704 28.338 63.376 28.498 63.904C28.914 65.28 30.066 66.128 31.634 66.128ZM31.634 65.136C30.562 65.136 29.794 64.528 29.554 63.568C29.458 63.216 29.426 62.64 29.426 61.952C29.426 61.28 29.458 60.688 29.554 60.336C29.81 59.392 30.562 58.768 31.602 58.768C32.674 58.768 33.442 59.392 33.682 60.336C33.778 60.688 33.81 61.248 33.81 61.952C33.81 62.592 33.778 63.184 33.682 63.568C33.426 64.528 32.658 65.136 31.634 65.136ZM40.5284 57.824C39.6004 57.824 38.9124 58.304 38.4804 59.04C38.4484 59.104 38.4004 59.088 38.4004 59.008V58.112C38.4004 57.984 38.3204 57.904 38.1924 57.904H37.4724C37.3444 57.904 37.2644 57.984 37.2644 58.112V65.792C37.2644 65.92 37.3444 66 37.4724 66H38.1924C38.3204 66 38.4004 65.92 38.4004 65.792V61.12C38.4004 59.92 39.2164 59.056 40.3204 59.024C40.6564 59.008 40.9124 59.04 41.1044 59.104C41.2484 59.152 41.3284 59.104 41.3604 58.976L41.5204 58.272C41.5524 58.16 41.5204 58.064 41.4084 58.016C41.2004 57.904 40.9284 57.824 40.5284 57.824ZM43.7805 56.448C44.2925 56.448 44.6445 56.112 44.6445 55.616C44.6445 55.136 44.2925 54.8 43.7805 54.8C43.2685 54.8 42.9165 55.136 42.9165 55.616C42.9165 56.112 43.2685 56.448 43.7805 56.448ZM43.4285 66H44.1485C44.2765 66 44.3565 65.92 44.3565 65.792V58.112C44.3565 57.984 44.2765 57.904 44.1485 57.904H43.4285C43.3005 57.904 43.2205 57.984 43.2205 58.112V65.792C43.2205 65.92 43.3005 66 43.4285 66ZM49.8144 57.776C48.1664 57.776 46.9824 58.576 46.7744 59.744C46.7584 59.856 46.8384 59.904 46.9664 59.92L47.7504 60.016C47.8784 60.032 47.9584 59.984 47.9904 59.856C48.1664 59.184 48.8224 58.768 49.8304 58.768C51.1584 58.768 51.7024 59.488 51.7024 60.528V61.12C51.7024 61.168 51.6704 61.2 51.6224 61.2H49.7664C47.6864 61.2 46.4704 62.192 46.4704 63.792C46.4704 65.472 47.7504 66.128 49.1104 66.128C50.1184 66.128 51.0144 65.808 51.6064 65.184C51.6544 65.12 51.7024 65.152 51.7024 65.216V65.792C51.7024 65.92 51.7824 66 51.9104 66H52.6304C52.7584 66 52.8384 65.92 52.8384 65.792V60.464C52.8384 58.88 51.7664 57.776 49.8144 57.776ZM49.3664 65.152C48.3904 65.152 47.6064 64.704 47.6064 63.728C47.6064 62.688 48.5504 62.096 49.9424 62.096H51.6224C51.6704 62.096 51.7024 62.128 51.7024 62.176V63.408C51.7024 64.528 50.5504 65.152 49.3664 65.152ZM7.168 87.496H4.576C4.528 87.496 4.496 87.464 4.496 87.416V84.76C4.496 84.632 4.416 84.552 4.288 84.552H3.712C3.584 84.552 3.504 84.632 3.504 84.76V87.416C3.504 87.464 3.472 87.496 3.424 87.496H0.832C0.704 87.496 0.624 87.576 0.624 87.704V88.28C0.624 88.408 0.704 88.488 0.832 88.488H3.424C3.472 88.488 3.504 88.52 3.504 88.568V91.096C3.504 91.224 3.584 91.304 3.712 91.304H4.288C4.416 91.304 4.496 91.224 4.496 91.096V88.568C4.496 88.52 4.528 88.488 4.576 88.488H7.168C7.296 88.488 7.376 88.408 7.376 88.28V87.704C7.376 87.576 7.296 87.496 7.168 87.496ZM15.104 87.736C14.656 86.68 13.776 86.024 12.384 86.024C11.552 86.024 10.8 86.248 10.272 86.952C10.224 87.016 10.176 87 10.176 86.936V84.616C10.176 83.416 11.024 82.664 12.16 82.664C13.28 82.664 14.048 83.416 14.048 84.504V84.648C14.048 84.728 14.128 84.792 14.256 84.792H14.976C15.104 84.792 15.184 84.712 15.184 84.584V84.408C15.184 82.776 13.968 81.672 12.16 81.672C10.336 81.672 9.04 82.776 9.04 84.536V89.528C9.04 89.992 9.088 90.552 9.232 91.032C9.648 92.328 10.72 93.112 12.272 93.112C13.776 93.112 14.752 92.376 15.184 91.16C15.36 90.744 15.44 90.2 15.44 89.56C15.44 88.776 15.312 88.184 15.104 87.736ZM14.112 90.776C13.856 91.656 13.136 92.12 12.24 92.12C11.232 92.12 10.576 91.56 10.336 90.776C10.224 90.456 10.176 90.104 10.176 89.608C10.176 89.08 10.24 88.648 10.368 88.312C10.624 87.528 11.264 87.016 12.224 87.016C13.2 87.016 13.824 87.528 14.08 88.28C14.224 88.568 14.304 89 14.304 89.56C14.304 90.088 14.224 90.488 14.112 90.776ZM18.7051 81.864L16.9611 82.792C16.8491 82.856 16.8171 82.92 16.8171 83.032V83.528C16.8171 83.672 16.9131 83.752 17.0571 83.688L18.7371 82.984C18.8011 82.952 18.8331 83 18.8331 83.048V92.792C18.8331 92.92 18.9131 93 19.0411 93H19.7611C19.8891 93 19.9691 92.92 19.9691 92.792V82.008C19.9691 81.88 19.8891 81.8 19.7611 81.8H18.9771C18.8811 81.8 18.7851 81.816 18.7051 81.864ZM32.3043 88.888H31.6803C31.6323 88.888 31.6003 88.856 31.6003 88.808V86.296C31.6003 86.168 31.5203 86.088 31.3923 86.088H30.6723C30.5443 86.088 30.4643 86.168 30.4643 86.296V88.808C30.4643 88.856 30.4323 88.888 30.3843 88.888H26.8003C26.7523 88.888 26.7363 88.84 26.7523 88.792L29.8883 82.04C29.9523 81.896 29.8883 81.8 29.7283 81.8H28.9923C28.8802 81.8 28.7843 81.864 28.7363 81.96L25.5043 88.936C25.4723 89.016 25.4403 89.096 25.4403 89.192V89.704C25.4403 89.832 25.5203 89.912 25.6483 89.912H30.3843C30.4323 89.912 30.4643 89.944 30.4643 89.992V92.792C30.4643 92.92 30.5443 93 30.6723 93H31.3923C31.5203 93 31.6003 92.92 31.6003 92.792V89.992C31.6003 89.944 31.6323 89.912 31.6803 89.912H32.3043C32.4323 89.912 32.5123 89.832 32.5123 89.704V89.096C32.5123 88.968 32.4323 88.888 32.3043 88.888ZM43.7759 83.768C43.3599 82.472 42.2879 81.688 40.7359 81.688C39.2319 81.688 38.2559 82.424 37.8239 83.64C37.6479 84.056 37.5679 84.6 37.5679 85.24C37.5679 86.024 37.6959 86.616 37.9039 87.064C38.3519 88.12 39.2319 88.776 40.6239 88.776C41.4559 88.776 42.2079 88.552 42.7359 87.848C42.7839 87.784 42.8319 87.8 42.8319 87.864V90.184C42.8319 91.384 41.9839 92.136 40.8479 92.136C39.7279 92.136 38.9599 91.384 38.9599 90.296V90.152C38.9599 90.072 38.8799 90.008 38.7519 90.008H38.0319C37.9039 90.008 37.8239 90.088 37.8239 90.216V90.392C37.8239 92.024 39.0399 93.128 40.8479 93.128C42.6719 93.128 43.9679 92.024 43.9679 90.264V85.272C43.9679 84.808 43.9199 84.248 43.7759 83.768ZM40.7839 87.784C39.8079 87.784 39.1839 87.272 38.9279 86.52C38.7839 86.232 38.7039 85.8 38.7039 85.24C38.7039 84.712 38.7839 84.312 38.8959 84.024C39.1519 83.144 39.8719 82.68 40.7679 82.68C41.7759 82.68 42.4319 83.24 42.6719 84.024C42.7839 84.344 42.8319 84.696 42.8319 85.192C42.8319 85.72 42.7679 86.152 42.6399 86.488C42.3839 87.272 41.7439 87.784 40.7839 87.784ZM52.1196 83.768C51.7036 82.472 50.6316 81.688 49.0796 81.688C47.5756 81.688 46.5996 82.424 46.1676 83.64C45.9916 84.056 45.9116 84.6 45.9116 85.24C45.9116 86.024 46.0396 86.616 46.2476 87.064C46.6956 88.12 47.5756 88.776 48.9676 88.776C49.7996 88.776 50.5516 88.552 51.0796 87.848C51.1276 87.784 51.1756 87.8 51.1756 87.864V90.184C51.1756 91.384 50.3276 92.136 49.1916 92.136C48.0716 92.136 47.3036 91.384 47.3036 90.296V90.152C47.3036 90.072 47.2236 90.008 47.0956 90.008H46.3756C46.2476 90.008 46.1676 90.088 46.1676 90.216V90.392C46.1676 92.024 47.3836 93.128 49.1916 93.128C51.0156 93.128 52.3116 92.024 52.3116 90.264V85.272C52.3116 84.808 52.2636 84.248 52.1196 83.768ZM49.1276 87.784C48.1516 87.784 47.5276 87.272 47.2716 86.52C47.1276 86.232 47.0476 85.8 47.0476 85.24C47.0476 84.712 47.1276 84.312 47.2396 84.024C47.4956 83.144 48.2156 82.68 49.1116 82.68C50.1196 82.68 50.7756 83.24 51.0156 84.024C51.1276 84.344 51.1756 84.696 51.1756 85.192C51.1756 85.72 51.1116 86.152 50.9836 86.488C50.7276 87.272 50.0876 87.784 49.1276 87.784ZM54.5114 93H60.7994C60.9274 93 61.0074 92.92 61.0074 92.792V92.216C61.0074 92.088 60.9274 92.008 60.7994 92.008H55.9034C55.8394 92.008 55.8074 91.96 55.8554 91.912C57.0074 90.504 58.1434 89.144 59.1674 87.8C60.1434 86.552 60.6714 85.464 60.6714 84.52C60.6714 82.872 59.4074 81.672 57.4394 81.672C55.6314 81.672 54.3194 82.76 54.2714 84.408V85C54.2714 85.128 54.3514 85.208 54.4794 85.208H55.2154C55.3434 85.208 55.4234 85.128 55.4234 85V84.552C55.4074 83.416 56.2234 82.664 57.4394 82.664C58.6874 82.664 59.5194 83.416 59.5194 84.536C59.5194 85.288 58.9594 86.296 58.0154 87.496C56.8634 88.936 55.6634 90.44 54.3994 91.944C54.3354 92.024 54.3034 92.104 54.3034 92.2V92.792C54.3034 92.92 54.3834 93 54.5114 93ZM68.9615 88.296C68.7215 87.736 68.3535 87.336 67.8735 87.064C67.8095 87.032 67.8095 87 67.8735 86.952C68.2415 86.728 68.5615 86.408 68.7855 86.072C69.0895 85.656 69.2495 85.144 69.2495 84.552C69.2495 84.008 69.1055 83.496 68.8975 83.128C68.3855 82.152 67.4095 81.64 66.0655 81.64C64.8495 81.64 63.8575 82.136 63.3295 82.984C63.0415 83.416 62.8815 83.944 62.8815 84.552C62.8815 85.144 63.0575 85.688 63.3615 86.12C63.5855 86.44 63.9055 86.728 64.2575 86.952C64.3215 86.984 64.3055 87.016 64.2575 87.048C63.7935 87.32 63.4415 87.72 63.1855 88.248C62.9935 88.68 62.8655 89.224 62.8655 89.848C62.8655 90.536 63.0095 91.144 63.2975 91.656C63.8095 92.6 64.8015 93.128 66.0655 93.128C67.3455 93.128 68.3055 92.6 68.8175 91.736C69.0895 91.256 69.2655 90.664 69.2655 89.864C69.2655 89.256 69.1695 88.728 68.9615 88.296ZM64.0015 84.648C64.0015 84.264 64.0975 83.912 64.2575 83.608C64.5935 83 65.2175 82.616 66.0495 82.616C66.9295 82.616 67.5535 83.016 67.8895 83.608C68.0495 83.896 68.1295 84.248 68.1295 84.632C68.1295 85.048 68.0335 85.432 67.8255 85.752C67.4575 86.296 66.8655 86.648 66.0815 86.648H65.9855C65.2495 86.632 64.6895 86.312 64.3535 85.816C64.1295 85.496 64.0015 85.096 64.0015 84.648ZM67.7455 91.336C67.3935 91.864 66.8335 92.152 66.0655 92.152C65.2815 92.152 64.7055 91.848 64.3535 91.272C64.1455 90.888 64.0175 90.392 64.0175 89.8C64.0175 89.384 64.0815 88.952 64.2415 88.616C64.5455 87.912 65.1375 87.464 66.0655 87.464C66.9935 87.464 67.6495 87.912 67.9375 88.664C68.0495 88.984 68.1295 89.368 68.1295 89.768C68.1295 90.44 67.9855 90.936 67.7455 91.336ZM80.3175 87.704C79.9175 86.728 79.1495 86.168 77.9655 86.088C77.8855 86.088 77.8695 86.04 77.9015 85.992L80.4775 82.904C80.5415 82.824 80.5735 82.744 80.5735 82.648V82.008C80.5735 81.88 80.4935 81.8 80.3655 81.8H74.5415C74.4135 81.8 74.3335 81.88 74.3335 82.008V82.584C74.3335 82.712 74.4135 82.792 74.5415 82.792H79.0215C79.0855 82.792 79.1175 82.824 79.0695 82.888L76.2855 86.152C76.2055 86.248 76.2055 86.344 76.2855 86.44L76.6375 86.856C76.7175 86.952 76.7975 86.968 76.9095 86.92C77.0855 86.856 77.2295 86.824 77.4215 86.824C78.3015 86.824 78.9095 87.208 79.2135 87.976C79.4055 88.392 79.5015 88.92 79.5015 89.544C79.5015 90.04 79.4215 90.488 79.2775 90.872C79.0055 91.688 78.3655 92.136 77.4375 92.136C76.3975 92.136 75.7095 91.512 75.4855 90.616C75.4375 90.408 75.4055 90.072 75.3895 89.8C75.3895 89.656 75.3095 89.592 75.1815 89.592H74.4455C74.3175 89.592 74.2375 89.672 74.2375 89.8C74.2535 90.152 74.3015 90.584 74.4135 90.968C74.7975 92.248 75.9015 93.128 77.4375 93.128C78.9415 93.128 79.9655 92.408 80.3975 91.112C80.5415 90.68 80.6375 90.168 80.6375 89.576C80.6375 88.84 80.5255 88.216 80.3175 87.704ZM88.7915 87.736C88.3435 86.68 87.4635 86.024 86.0715 86.024C85.2395 86.024 84.4875 86.248 83.9595 86.952C83.9115 87.016 83.8635 87 83.8635 86.936V84.616C83.8635 83.416 84.7115 82.664 85.8475 82.664C86.9675 82.664 87.7355 83.416 87.7355 84.504V84.648C87.7355 84.728 87.8155 84.792 87.9435 84.792H88.6635C88.7915 84.792 88.8715 84.712 88.8715 84.584V84.408C88.8715 82.776 87.6555 81.672 85.8475 81.672C84.0235 81.672 82.7275 82.776 82.7275 84.536V89.528C82.7275 89.992 82.7755 90.552 82.9195 91.032C83.3355 92.328 84.4075 93.112 85.9595 93.112C87.4635 93.112 88.4395 92.376 88.8715 91.16C89.0475 90.744 89.1275 90.2 89.1275 89.56C89.1275 88.776 88.9995 88.184 88.7915 87.736ZM87.7995 90.776C87.5435 91.656 86.8235 92.12 85.9275 92.12C84.9195 92.12 84.2635 91.56 84.0235 90.776C83.9115 90.456 83.8635 90.104 83.8635 89.608C83.8635 89.08 83.9275 88.648 84.0555 88.312C84.3115 87.528 84.9515 87.016 85.9115 87.016C86.8875 87.016 87.5115 87.528 87.7675 88.28C87.9115 88.568 87.9915 89 87.9915 89.56C87.9915 90.088 87.9115 90.488 87.7995 90.776ZM91.0739 93H97.3619C97.4899 93 97.5699 92.92 97.5699 92.792V92.216C97.5699 92.088 97.4899 92.008 97.3619 92.008H92.4659C92.4019 92.008 92.3699 91.96 92.4179 91.912C93.5699 90.504 94.7059 89.144 95.7299 87.8C96.7059 86.552 97.2339 85.464 97.2339 84.52C97.2339 82.872 95.9699 81.672 94.0019 81.672C92.1939 81.672 90.8819 82.76 90.8339 84.408V85C90.8339 85.128 90.9139 85.208 91.0419 85.208H91.7779C91.9059 85.208 91.9859 85.128 91.9859 85V84.552C91.9699 83.416 92.7859 82.664 94.0019 82.664C95.2499 82.664 96.0819 83.416 96.0819 84.536C96.0819 85.288 95.5219 86.296 94.5779 87.496C93.4259 88.936 92.2259 90.44 90.9619 91.944C90.8979 92.024 90.8659 92.104 90.8659 92.2V92.792C90.8659 92.92 90.9459 93 91.0739 93ZM105.604 83.768C105.188 82.472 104.116 81.688 102.564 81.688C101.06 81.688 100.084 82.424 99.652 83.64C99.476 84.056 99.396 84.6 99.396 85.24C99.396 86.024 99.524 86.616 99.732 87.064C100.18 88.12 101.06 88.776 102.452 88.776C103.284 88.776 104.036 88.552 104.564 87.848C104.612 87.784 104.66 87.8 104.66 87.864V90.184C104.66 91.384 103.812 92.136 102.676 92.136C101.556 92.136 100.788 91.384 100.788 90.296V90.152C100.788 90.072 100.708 90.008 100.58 90.008H99.86C99.732 90.008 99.652 90.088 99.652 90.216V90.392C99.652 92.024 100.868 93.128 102.676 93.128C104.5 93.128 105.796 92.024 105.796 90.264V85.272C105.796 84.808 105.748 84.248 105.604 83.768ZM102.612 87.784C101.636 87.784 101.012 87.272 100.756 86.52C100.612 86.232 100.532 85.8 100.532 85.24C100.532 84.712 100.612 84.312 100.724 84.024C100.98 83.144 101.7 82.68 102.596 82.68C103.604 82.68 104.26 83.24 104.5 84.024C104.612 84.344 104.66 84.696 104.66 85.192C104.66 85.72 104.596 86.152 104.468 86.488C104.212 87.272 103.572 87.784 102.612 87.784Z" fill="#333D4B"/>
</svg>
